PathFileType	4	(X/Y/Z)	C:\Users\Biomechanik\SynologyDrive\AlexP\Athlete_03\Athlete_3_25_03_31\Deadlift_35kg_01\marker_experimental.trc
DataRate	CameraRate	NumFrames	NumMarkers	Units	OrigDataRate	OrigDataStartFrame	OrigNumFrames
200.000000	200.000000	4	55	mm	200.000000	515	2060
Frame#	Time	BL			BR			GLAB			RFHD			LFHD			C7			T6			SPINMOL			SPINM2			SPINM3			T12			BELTOL			BELT2			BELT3			SACROL			SACR2			SACR3			LTHOL			LTH2			LTH3			LSHAOL			LSHA2			LSHA3			LHEE			LTOE			LM5			RTHOL			RTH2			RTH3			RSHAOL			RSHA2			RSHA3			RHEE			RTOE			RM5			STRN			XIPH			LACR			LUAOL			LUA2			LUA3			LLAOL			LLA2			LLA3			LWRR			LWRU			RACR			RUAOL			RUA2			RUA3			RLAOL			RLA2			RLA3			RWRR			RWRU			
		X1	Y1	Z1	X2	Y2	Z2	X3	Y3	Z3	X4	Y4	Z4	X5	Y5	Z5	X6	Y6	Z6	X7	Y7	Z7	X8	Y8	Z8	X9	Y9	Z9	X10	Y10	Z10	X11	Y11	Z11	X12	Y12	Z12	X13	Y13	Z13	X14	Y14	Z14	X15	Y15	Z15	X16	Y16	Z16	X17	Y17	Z17	X18	Y18	Z18	X19	Y19	Z19	X20	Y20	Z20	X21	Y21	Z21	X22	Y22	Z22	X23	Y23	Z23	X24	Y24	Z24	X25	Y25	Z25	X26	Y26	Z26	X27	Y27	Z27	X28	Y28	Z28	X29	Y29	Z29	X30	Y30	Z30	X31	Y31	Z31	X32	Y32	Z32	X33	Y33	Z33	X34	Y34	Z34	X35	Y35	Z35	X36	Y36	Z36	X37	Y37	Z37	X38	Y38	Z38	X39	Y39	Z39	X40	Y40	Z40	X41	Y41	Z41	X42	Y42	Z42	X43	Y43	Z43	X44	Y44	Z44	X45	Y45	Z45	X46	Y46	Z46	X47	Y47	Z47	X48	Y48	Z48	X49	Y49	Z49	X50	Y50	Z50	X51	Y51	Z51	X52	Y52	Z52	X53	Y53	Z53	X54	Y54	Z54	X55	Y55	Z55	

516	2.575	2223.350341796875	225.4016265869142	338.0260620117191	202.4105682373046	220.0185089111328	312.0924682617188	1199.957885742187	995.3410644531251	690.0319824218752	1136.56591796875	1042.13720703125	659.806579589844	1272.493896484375	1035.718017578125	662.5048828125002	1205.829223632812	1010.978942871094	414.3925781250002	1209.059936523438	966.6728515625001	252.4301452636721	1232.236938476562	952.3430175781251	218.8704833984377	1183.215454101562	949.3711547851564	209.3546447753909	1219.292602539062	918.1410522460939	163.7245025634768	1219.93408203125	877.7664794921876	117.4365081787112	1234.881469726562	875.4329833984376	79.7673034667971	1184.3857421875	871.7396850585939	77.97811126709006	1214.499877929688	836.2068481445314	30.59716796875022	1243.98095703125	739.9933471679689	-65.08758544921852	1192.634399414062	737.9644775390626	-62.81831359863259	1218.810913085938	684.7086181640626	-92.23360443115212	1424.960327148438	487.9028930664064	167.6326904296878	1400.72705078125	416.3147583007814	189.0986175537112	1417.231079101562	454.3138122558595	218.3755645751956	1426.468505859375	284.9558410644532	275.8887329101565	1412.594360351562	246.3348693847657	207.4000091552737	1415.362182617188	228.3128051757813	254.3843231201174	1308.406127929688	69.77533721923837	106.9331359863284	1318.925903320312	45.02565765380867	322.020446777344	1420.330932617188	31.17752647399911	271.9508972167972	1008.522216796875	488.9030761718751	151.0643615722658	990.0309448242188	510.4019165039063	226.2092742919924	1010.328979492188	467.5665893554688	209.6581726074221	1000.688781738281	308.9360961914063	269.2294006347658	1007.736999511719	230.7080993652344	275.6167907714845	1014.5966796875	258.4400939941407	235.2734832763674	1126.725952148438	63.37005615234382	114.3470764160158	1102.678344726562	46.33520126342781	325.3108520507815	1004.785522460938	40.12993240356452	268.0923156738283	1206.647338867188	820.5343017578126	464.1600646972659	1212.91748046875	719.3481445312501	357.7243347167971	1372.474853515625	892.8228149414064	454.7578430175784	1467.779663085938	745.2064208984376	415.9771728515628	1491.10546875	690.5180053710939	388.6539611816409	1451.7734375	682.7476196289064	420.0683288574222	1500.342895507812	486.5944213867189	366.0871276855472	1508.017456054688	434.6614074707032	306.961608886719	1499.442016601562	426.8935852050782	355.4093322753909	1493.854614257812	321.672576904297	359.1746826171878	1420.620971679688	316.3777465820314	333.3699035644534	1046.76953125	888.7789916992189	458.7228393554689	960.3371582031249	747.5822753906251	416.3017578125002	967.7779541015624	684.0310668945314	417.0920410156252	930.1823120117186	696.3958129882814	386.5610961914064	926.1107788085936	479.8203430175782	352.3851623535158	933.5695800781249	409.6971740722657	389.5661010742189	922.8349609374999	417.8807067871094	341.6626281738283	928.3373413085936	327.5624694824219	356.7257690429689	999.8359985351561	308.0435791015626	317.4517517089845	
517	2.58	2223.366455078125	225.4904785156251	338.0022888183598	202.4175415039062	220.1320953369141	312.2305908203126	1200.01513671875	997.5064086914064	689.4797973632815	1136.616943359375	1044.051391601562	658.830017089844	1272.561401367187	1037.64013671875	661.563659667969	1205.8515625	1011.228881835938	413.7746887207034	1209.032104492188	966.4287109375001	252.1416931152346	1232.210815429688	952.0369262695314	218.6678924560549	1183.192993164062	949.0552368164064	209.1546630859377	1219.265991210938	917.7448730468751	163.5751800537112	1219.918823242188	877.4508056640626	117.4389724731448	1234.851196289062	875.1950073242189	79.86605072021507	1184.350708007812	871.4887084960939	78.07878875732443	1214.43359375	835.9500732421876	30.71805953979515	1243.980712890625	739.7866821289064	-65.07345581054665	1192.630859375	737.7635498046876	-62.82329940795876	1218.812133789062	684.5178222656251	-92.22348022460915	1425.037109375	487.8279113769532	167.5949554443362	1400.877197265625	416.2051391601564	189.1046295166018	1417.345825195312	454.2280883789064	218.3770904541018	1426.538696289062	284.8966674804689	275.9146118164065	1412.665649414062	246.2820129394532	207.424743652344	1415.418701171875	228.2716064453126	254.413757324219	1308.403198242188	69.77489471435555	106.9326629638674	1318.935180664062	45.03131103515633	322.0186157226565	1420.336303710938	31.1664466857911	271.9466247558597	1008.516540527344	488.7611694335938	151.0983276367189	990.0392456054688	510.3207397460938	226.2287902832033	1010.309936523438	467.4579162597657	209.7043457031252	1000.692626953125	308.8876953125001	269.2869873046877	1007.758117675781	230.6464843750001	275.674774169922	1014.578552246094	258.4001770019532	235.3237609863283	1126.734619140625	63.36725616455085	114.346878051758	1102.68017578125	46.33334350585945	325.3103027343752	1004.775634765625	40.1210899353028	268.1084899902345	1206.671752929688	821.0145263671876	464.1772766113284	1212.895629882812	719.4464111328126	358.145690917969	1372.569580078125	893.1937255859376	454.269226074219	1467.877197265625	745.4565429687501	415.5124511718753	1491.106567382812	690.7304687500001	388.2037353515628	1451.841430664062	683.0062866210939	419.721374511719	1500.256469726562	486.7774658203126	365.9194641113284	1507.939575195312	434.8355712890626	306.7983093261722	1499.439697265625	427.0939025878907	355.2627868652347	1493.874633789062	321.8564453125001	359.0946350097659	1420.6083984375	316.440643310547	333.2175598144534	1046.719360351562	889.1369628906251	458.3726501464845	960.2894287109374	747.8005981445314	416.0278625488283	967.7929687499999	684.2698364257814	416.8694152832033	930.1134643554686	696.6135253906251	386.2860412597658	926.2220458984374	480.0119628906251	352.3224182128908	933.6402587890624	409.8738708496094	389.5235900878908	922.8997802734374	418.0617980957032	341.6290893554689	928.3664550781249	327.7438659667969	356.7637939453127	999.8751220703124	308.1735534667969	317.5220031738283	
518	2.585	2223.385498046875	225.5764617919923	337.9976501464848	202.4274749755859	220.2446136474609	312.3688659667969	1200.070434570312	999.6552124023439	688.916198730469	1136.66650390625	1045.94580078125	657.8455810546877	1272.627807617187	1039.54443359375	660.6182250976565	1205.877685546875	1011.478820800781	413.1628723144534	1209.004638671875	966.1945190429689	251.8554840087893	1232.183837890625	951.7406616210939	218.4676055908205	1183.168579101562	948.7512207031251	208.9580535888674	1219.238525390625	917.3606567382814	163.4260253906252	1219.901489257812	877.1458129882814	117.4385375976565	1234.818603515625	874.9676513671876	79.95764160156273	1184.312377929688	871.2488403320314	78.17371368408224	1214.361328125	835.6997680664064	30.83523750305198	1243.972045898438	739.5888671875001	-65.06713867187477	1192.618774414062	737.5731201171876	-62.83195877075173	1218.802368164062	684.3356933593751	-92.21910095214821	1425.107543945312	487.762908935547	167.5536346435549	1401.024658203125	416.1041564941407	189.1054687500003	1417.457397460938	454.1541748046876	218.3711700439456	1426.607055664062	284.8396606445314	275.9376525878909	1412.73583984375	246.2270050048829	207.4485168457034	1415.47265625	228.2313385009766	254.4430389404299	1308.398315429688	69.77391815185555	106.9338226318362	1318.943115234375	45.03696441650398	322.017028808594	1420.341796875	31.15513801574716	271.9435119628909	1008.507446289062	488.6260681152344	151.1340026855471	990.0462036132812	510.2442321777344	226.2517547607424	1010.289123535156	467.3544921875001	209.7519378662111	1000.696716308594	308.8386535644532	269.344940185547	1007.775024414062	230.5898132324219	275.7344055175783	1014.559204101562	258.3599853515626	235.3747711181643	1126.742431640625	63.36449050903327	114.3469390869143	1102.6806640625	46.33234024047859	325.3099365234377	1004.765502929688	40.11263656616217	268.1243896484377	1206.701904296875	821.4946289062501	464.188659667969	1212.872192382812	719.5505371093751	358.5578918457034	1372.668090820312	893.5642089843751	453.7845458984377	1467.986572265625	745.7109375000001	415.050720214844	1491.120483398438	690.9451293945314	387.7591857910159	1451.92236328125	683.2675781250001	419.3790283203128	1500.178833007812	486.965545654297	365.7596130371097	1507.870849609375	435.015350341797	306.643493652344	1499.442626953125	427.296600341797	355.1227722167972	1493.900512695312	322.0453491210939	359.0146179199222	1420.624389648438	316.5212707519532	333.0503234863284	1046.67431640625	889.4945068359376	458.0232543945314	960.2335205078124	748.0231933593751	415.7414550781252	967.7944335937499	684.5134277343751	416.6364135742189	930.0515747070311	696.8323974609376	385.993865966797	926.3273925781249	480.2082519531251	352.2478027343752	933.7023925781249	410.0520629882813	389.4671630859377	922.9624633789061	418.2470092773438	341.5850524902345	928.3913574218749	327.9293823242188	356.7958068847658	999.9127807617186	308.3091125488282	317.5904846191408	
519	2.59	2223.40771484375	225.657684326172	338.013092041016	202.4405517578124	220.3540649414062	312.5079040527344	1200.123779296875	1001.785888671875	688.3414306640627	1136.71484375	1047.819580078125	656.8543701171877	1272.692626953125	1041.429809570312	659.6697998046877	1205.908203125	1011.729431152344	412.5572204589846	1208.979125976562	965.9707641601564	251.5714416503909	1232.157592773438	951.4544677734376	218.2698211669924	1183.143920898438	948.4594116210939	208.7646179199221	1219.2119140625	916.9885253906251	163.2773742675784	1219.883422851562	876.8516235351564	117.4355545043948	1234.784912109375	874.7510375976564	80.04179382324241	1184.272094726562	871.0205688476564	78.26241302490256	1214.286010742188	835.4575195312501	30.94653511047386	1243.955444335938	739.4003906250001	-65.06846618652321	1192.5986328125	737.3931884765626	-62.84231948852517	1218.782104492188	684.1624145507814	-92.22076416015602	1425.170043945312	487.7051086425782	167.5102691650393	1401.165893554688	416.0115356445314	189.1023712158206	1417.563842773438	454.0909729003907	218.3580627441409	1426.67236328125	284.785125732422	275.9577636718753	1412.803833007812	246.1705474853516	207.4710998535159	1415.5234375	228.1921844482423	254.471862792969	1308.391357421875	69.77232360839852	106.9366836547854	1318.949829101562	45.0424003601075	322.0157470703127	1420.34716796875	31.14405059814462	271.9415588378909	1008.495361328125	488.4975585937501	151.1703491210939	990.051513671875	510.1720886230469	226.277069091797	1010.266784667969	467.2565002441407	209.8002014160158	1000.700256347656	308.7900085449219	269.4019165039064	1007.78759765625	230.5385284423829	275.7944335937502	1014.538940429688	258.3202819824219	235.4253997802736	1126.74951171875	63.36188507080085	114.3474426269533	1102.679809570312	46.33217620849616	325.3098144531252	1004.755310058594	40.10483932495124	268.1395568847658	1206.737548828125	821.9750366210939	464.1943359375002	1212.847290039062	719.6608886718751	358.9610595703127	1372.770385742188	893.9341430664064	453.304138183594	1468.106323242188	745.9688110351564	414.5953674316409	1491.146118164062	691.1597290039064	387.3242492675784	1452.0146484375	683.5306396484376	419.0438232421878	1500.11083984375	487.158660888672	365.6076965332034	1507.81005859375	435.2010192871095	306.4970703125003	1499.449951171875	427.5007324218751	354.9894104003909	1493.932006835938	322.238739013672	358.934509277344	1420.6787109375	316.6252441406251	332.8660888671878	1046.634399414062	889.8526000976564	457.6741333007814	960.1694335937499	748.2504272460939	415.442840576172	967.7825927734374	684.7622070312501	416.3931274414064	929.9992065429686	697.0515747070314	385.685516357422	926.4282226562499	480.4090270996094	352.1626586914064	933.7595214843749	410.2326354980469	389.3981018066408	923.0250854492186	418.4364624023438	341.5321350097658	928.4136962890624	328.1185913085938	356.8218994140627	999.9500122070311	308.4500122070313	317.6564331054689	
